<svg width="273" height="68" viewBox="0 0 273 68" fill="none" xmlns="http://www.w3.org/2000/svg">
<path d="M4.09596 36V35.3L6.02096 34.915C6.88429 34.7283 7.43263 34.5183 7.66596 34.285C7.92263 34.0517 8.05096 33.5733 8.05096 32.85V15.595C8.05096 14.8483 7.92263 14.3583 7.66596 14.125C7.43263 13.8917 6.88429 13.6933 6.02096 13.53L4.09596 13.145V12.445H16.451C18.061 12.445 19.461 12.6783 20.651 13.145C21.841 13.5883 22.7626 14.2183 23.416 15.035C24.0693 15.8517 24.396 16.8083 24.396 17.905C24.396 19.375 23.8826 20.5067 22.856 21.3C21.8293 22.07 20.4876 22.5833 18.831 22.84V22.91C19.9743 23.0267 21.071 23.33 22.121 23.82C23.171 24.2867 24.0226 24.9517 24.676 25.815C25.3526 26.6783 25.691 27.7283 25.691 28.965C25.691 30.645 25.236 31.9983 24.326 33.025C23.4393 34.0517 22.2376 34.81 20.721 35.3C19.2276 35.7667 17.571 36 15.751 36H4.09596ZM14.526 34.985H15.401C16.4743 34.985 17.4193 34.74 18.236 34.25C19.0526 33.76 19.6943 33.0717 20.161 32.185C20.651 31.2983 20.896 30.26 20.896 29.07C20.896 27.9733 20.686 27.0167 20.266 26.2C19.8693 25.36 19.2626 24.7183 18.446 24.275C17.6293 23.8083 16.591 23.575 15.331 23.575H12.251V32.885C12.251 33.655 12.4026 34.1917 12.706 34.495C13.0326 34.7983 13.6393 34.9617 14.526 34.985ZM12.251 22.525H15.576C16.9293 22.525 17.991 22.07 18.761 21.16C19.531 20.25 19.916 19.1883 19.916 17.975C19.916 16.575 19.4843 15.4783 18.621 14.685C17.7576 13.8683 16.5443 13.46 14.981 13.46H12.251V22.525ZM26.7421 36V35.3L28.6671 34.915C29.5304 34.7283 30.0787 34.5183 30.3121 34.285C30.5687 34.0517 30.6971 33.5733 30.6971 32.85V15.595C30.6971 14.8483 30.5687 14.3583 30.3121 14.125C30.0787 13.8917 29.5304 13.6933 28.6671 13.53L26.7421 13.145V12.445H38.8521V13.145L36.9271 13.53C36.0637 13.6933 35.5037 13.8917 35.2471 14.125C35.0137 14.3583 34.8971 14.8483 34.8971 15.595V32.815C34.8971 33.5383 35.0721 34.075 35.4221 34.425C35.7721 34.775 36.4487 34.95 37.4521 34.95H42.0721C42.9821 34.95 43.7987 34.81 44.5221 34.53C45.2687 34.25 45.9104 33.865 46.4471 33.375C47.0071 32.8617 47.4621 32.29 47.8121 31.66L49.1421 29.35H49.8771C49.6204 30.4 49.3987 31.52 49.2121 32.71C49.0254 33.9 48.9204 34.9967 48.8971 36H26.7421ZM61.0905 36.385C59.9238 36.385 58.8155 36.1983 57.7655 35.825C56.7155 35.4283 55.7705 34.88 54.9305 34.18C54.1138 33.4567 53.4721 32.5933 53.0055 31.59C52.5388 30.5867 52.3055 29.4783 52.3055 28.265V15.595C52.3055 14.8483 52.1771 14.3583 51.9205 14.125C51.6871 13.8917 51.1388 13.6933 50.2755 13.53L48.3505 13.145V12.445H60.4605V13.145L58.5355 13.53C57.6721 13.6933 57.1121 13.8917 56.8555 14.125C56.6221 14.3583 56.5055 14.8483 56.5055 15.595V28.125C56.5055 30.0617 57.0421 31.5783 58.1155 32.675C59.1888 33.7483 60.7171 34.285 62.7005 34.285C63.9371 34.285 65.0105 34.0283 65.9205 33.515C66.8305 33.0017 67.5305 32.29 68.0205 31.38C68.5338 30.4467 68.7905 29.3733 68.7905 28.16V15.7C68.7905 15.0467 68.6388 14.58 68.3355 14.3C68.0555 13.9967 67.5305 13.775 66.7605 13.635L64.3805 13.145V12.445H74.0755V13.145L72.0105 13.6C71.2405 13.74 70.7038 13.95 70.4005 14.23C70.1205 14.51 69.9805 14.9883 69.9805 15.665V32.185C69.5605 32.185 69.1871 32.3367 68.8605 32.64C68.5571 32.9433 68.1955 33.305 67.7755 33.725C67.4021 34.1217 66.9471 34.53 66.4105 34.95C65.8738 35.3467 65.1738 35.685 64.3105 35.965C63.4705 36.245 62.3971 36.385 61.0905 36.385ZM73.9483 36V35.3L75.8733 34.915C76.7366 34.7283 77.285 34.5183 77.5183 34.285C77.775 34.0517 77.9033 33.5733 77.9033 32.85V15.595C77.9033 14.8483 77.775 14.3583 77.5183 14.125C77.285 13.8917 76.7366 13.6933 75.8733 13.53L73.9483 13.145V12.445H93.9333C93.8633 12.7717 93.8166 13.0983 93.7933 13.425C93.77 13.7283 93.7583 14.0433 93.7583 14.37C93.7583 15.1633 93.8166 15.91 93.9333 16.61C94.0733 17.31 94.19 17.9867 94.2833 18.64H93.5483C93.1983 17.66 92.7433 16.785 92.1833 16.015C91.6466 15.245 90.9816 14.6267 90.1883 14.16C89.395 13.6933 88.45 13.46 87.3533 13.46H82.1033V23.015H87.0383C88.2283 23.015 89.045 22.7933 89.4883 22.35C89.955 21.9067 90.27 21.23 90.4333 20.32L90.7483 18.71H91.4483V28.405H90.7483L90.4333 26.76C90.27 25.8733 89.955 25.2083 89.4883 24.765C89.045 24.3217 88.24 24.1 87.0733 24.1H82.1033V32.255C82.1033 32.885 82.15 33.41 82.2433 33.83C82.36 34.2267 82.5933 34.5183 82.9433 34.705C83.3166 34.8683 83.8883 34.95 84.6583 34.95H87.4933C88.38 34.95 89.185 34.81 89.9083 34.53C90.6316 34.2267 91.2733 33.83 91.8333 33.34C92.3933 32.8267 92.86 32.2667 93.2333 31.66L94.4933 29.7H95.2283C94.9716 30.75 94.7616 31.8117 94.5983 32.885C94.435 33.9583 94.3533 34.9967 94.3533 36H73.9483ZM118.718 36V35.3L120.643 34.915C121.506 34.7283 122.054 34.5183 122.288 34.285C122.544 34.0517 122.673 33.5733 122.673 32.85V15.595C122.673 14.8483 122.544 14.3583 122.288 14.125C122.054 13.8917 121.506 13.6933 120.643 13.53L118.718 13.145V12.445H130.828V13.145L128.903 13.53C128.039 13.6933 127.479 13.8917 127.223 14.125C126.989 14.3583 126.873 14.8483 126.873 15.595V32.85C126.873 33.5733 126.989 34.0517 127.223 34.285C127.479 34.5183 128.039 34.7283 128.903 34.915L130.828 35.3V36H118.718ZM103.108 36V35.3L105.033 34.915C105.896 34.7283 106.444 34.5183 106.678 34.285C106.934 34.0517 107.063 33.5733 107.063 32.85V15.595C107.063 14.8483 106.934 14.3583 106.678 14.125C106.444 13.8917 105.896 13.6933 105.033 13.53L103.108 13.145V12.445H115.218V13.145L113.293 13.53C112.429 13.6933 111.869 13.8917 111.613 14.125C111.379 14.3583 111.263 14.8483 111.263 15.595V32.85C111.263 33.5733 111.379 34.0517 111.613 34.285C111.869 34.5183 112.429 34.7283 113.293 34.915L115.218 35.3V36H103.108ZM110.528 24.065L110.493 22.98H123.933L123.968 24.065H110.528ZM143.895 36.385C142.075 36.385 140.407 36.0817 138.89 35.475C137.373 34.845 136.055 33.9933 134.935 32.92C133.815 31.8233 132.94 30.5633 132.31 29.14C131.703 27.6933 131.4 26.1533 131.4 24.52C131.4 22.7233 131.703 21.0783 132.31 19.585C132.94 18.0917 133.815 16.785 134.935 15.665C136.055 14.5217 137.373 13.6467 138.89 13.04C140.407 12.41 142.063 12.095 143.86 12.095C145.703 12.095 147.383 12.41 148.9 13.04C150.44 13.6467 151.77 14.51 152.89 15.63C154.01 16.7267 154.873 17.9983 155.48 19.445C156.11 20.8683 156.425 22.4083 156.425 24.065C156.425 25.815 156.11 27.4483 155.48 28.965C154.873 30.4583 154.01 31.765 152.89 32.885C151.77 33.9817 150.44 34.845 148.9 35.475C147.383 36.0817 145.715 36.385 143.895 36.385ZM143.86 35.3C145.47 35.3 146.858 34.8333 148.025 33.9C149.215 32.9433 150.137 31.625 150.79 29.945C151.467 28.2417 151.805 26.2933 151.805 24.1C151.805 22 151.467 20.1333 150.79 18.5C150.137 16.8667 149.215 15.5833 148.025 14.65C146.858 13.7167 145.482 13.25 143.895 13.25C142.332 13.25 140.955 13.7167 139.765 14.65C138.598 15.5833 137.677 16.9017 137 18.605C136.347 20.285 136.02 22.2567 136.02 24.52C136.02 26.06 136.207 27.4833 136.58 28.79C136.953 30.0967 137.49 31.24 138.19 32.22C138.89 33.2 139.718 33.9583 140.675 34.495C141.655 35.0317 142.717 35.3 143.86 35.3ZM180.709 36.49C179.636 36.49 178.667 36.2917 177.804 35.895C176.941 35.475 176.112 34.8683 175.319 34.075C174.549 33.2817 173.767 32.3367 172.974 31.24C172.344 30.33 171.714 29.4433 171.084 28.58C170.477 27.7167 169.777 27.005 168.984 26.445C168.214 25.885 167.257 25.605 166.114 25.605H165.134V32.85C165.134 33.5733 165.251 34.0517 165.484 34.285C165.741 34.5183 166.301 34.7283 167.164 34.915L169.089 35.3V36H156.979V35.3L158.904 34.915C159.767 34.7283 160.316 34.5183 160.549 34.285C160.806 34.0517 160.934 33.5733 160.934 32.85V15.595C160.934 14.8483 160.806 14.3583 160.549 14.125C160.316 13.8917 159.767 13.6933 158.904 13.53L156.979 13.145V12.445H166.779C170.139 12.445 172.752 13.0167 174.619 14.16C176.486 15.3033 177.419 16.89 177.419 18.92C177.419 19.9933 177.104 20.9617 176.474 21.825C175.844 22.665 175.004 23.3533 173.954 23.89C172.904 24.4033 171.761 24.73 170.524 24.87V24.94C171.597 24.9867 172.531 25.2783 173.324 25.815C174.141 26.3283 174.864 27.005 175.494 27.845C176.147 28.6617 176.789 29.525 177.419 30.435C178.026 31.2983 178.632 32.115 179.239 32.885C179.846 33.6317 180.464 34.2383 181.094 34.705C181.747 35.1717 182.412 35.405 183.089 35.405V36.175C182.296 36.385 181.502 36.49 180.709 36.49ZM165.134 24.52H166.779C167.992 24.52 169.066 24.3217 169.999 23.925C170.956 23.505 171.702 22.8983 172.239 22.105C172.776 21.3117 173.044 20.3317 173.044 19.165C173.044 17.2983 172.449 15.8867 171.259 14.93C170.092 13.95 168.447 13.46 166.324 13.46H165.134V24.52ZM182.359 36V35.3L184.284 34.915C185.148 34.7283 185.696 34.5183 185.929 34.285C186.186 34.0517 186.314 33.5733 186.314 32.85V15.595C186.314 14.8483 186.186 14.3583 185.929 14.125C185.696 13.8917 185.148 13.6933 184.284 13.53L182.359 13.145V12.445H194.469V13.145L192.544 13.53C191.681 13.6933 191.121 13.8917 190.864 14.125C190.631 14.3583 190.514 14.8483 190.514 15.595V32.85C190.514 33.5733 190.631 34.0517 190.864 34.285C191.121 34.5183 191.681 34.7283 192.544 34.915L194.469 35.3V36H182.359ZM194.507 36V35.475L210.012 13.46H203.642C202.335 13.46 201.238 13.67 200.352 14.09C199.465 14.51 198.718 15.1517 198.112 16.015C197.505 16.855 196.945 17.94 196.432 19.27H195.697C195.883 18.5 196.023 17.695 196.117 16.855C196.21 16.015 196.257 15.1867 196.257 14.37C196.257 14.0433 196.233 13.7283 196.187 13.425C196.163 13.0983 196.128 12.7717 196.082 12.445H215.367V13.04L200.037 34.95H207.317C208.623 34.95 209.813 34.6933 210.887 34.18C211.983 33.6667 212.928 32.9667 213.722 32.08C214.515 31.1933 215.11 30.2017 215.507 29.105H216.242C215.962 30.295 215.74 31.45 215.577 32.57C215.413 33.69 215.332 34.8333 215.332 36H194.507ZM228.771 36.385C226.951 36.385 225.283 36.0817 223.766 35.475C222.25 34.845 220.931 33.9933 219.811 32.92C218.691 31.8233 217.816 30.5633 217.186 29.14C216.58 27.6933 216.276 26.1533 216.276 24.52C216.276 22.7233 216.58 21.0783 217.186 19.585C217.816 18.0917 218.691 16.785 219.811 15.665C220.931 14.5217 222.25 13.6467 223.766 13.04C225.283 12.41 226.94 12.095 228.736 12.095C230.58 12.095 232.26 12.41 233.776 13.04C235.316 13.6467 236.646 14.51 237.766 15.63C238.886 16.7267 239.75 17.9983 240.356 19.445C240.986 20.8683 241.301 22.4083 241.301 24.065C241.301 25.815 240.986 27.4483 240.356 28.965C239.75 30.4583 238.886 31.765 237.766 32.885C236.646 33.9817 235.316 34.845 233.776 35.475C232.26 36.0817 230.591 36.385 228.771 36.385ZM228.736 35.3C230.346 35.3 231.735 34.8333 232.901 33.9C234.091 32.9433 235.013 31.625 235.666 29.945C236.343 28.2417 236.681 26.2933 236.681 24.1C236.681 22 236.343 20.1333 235.666 18.5C235.013 16.8667 234.091 15.5833 232.901 14.65C231.735 13.7167 230.358 13.25 228.771 13.25C227.208 13.25 225.831 13.7167 224.641 14.65C223.475 15.5833 222.553 16.9017 221.876 18.605C221.223 20.285 220.896 22.2567 220.896 24.52C220.896 26.06 221.083 27.4833 221.456 28.79C221.83 30.0967 222.366 31.24 223.066 32.22C223.766 33.2 224.595 33.9583 225.551 34.495C226.531 35.0317 227.593 35.3 228.736 35.3ZM264.85 36.595L247.14 16.75V32.745C247.14 33.375 247.28 33.8417 247.56 34.145C247.864 34.4483 248.4 34.67 249.17 34.81L251.55 35.3V36H241.855V35.3L243.955 34.845C244.702 34.705 245.227 34.495 245.53 34.215C245.834 33.935 245.985 33.4567 245.985 32.78V15.7C245.985 15.1867 245.939 14.8017 245.845 14.545C245.752 14.265 245.542 14.055 245.215 13.915C244.912 13.775 244.422 13.635 243.745 13.495L241.995 13.145V12.445H248.855L264.185 29.42V15.7C264.185 15.0467 264.034 14.58 263.73 14.3C263.427 13.9967 262.902 13.775 262.155 13.635L259.74 13.145V12.445H269.435V13.145L267.37 13.6C266.6 13.74 266.064 13.95 265.76 14.23C265.48 14.51 265.34 14.9883 265.34 15.665V36.595H264.85Z" fill="#030088"/>
<path d="M73.2252 61.15C72.3552 61.15 71.5552 61.02 70.8252 60.76C70.1052 60.5 69.4802 60.14 68.9502 59.68C68.4302 59.21 68.0252 58.67 67.7352 58.06C67.4452 57.44 67.3002 56.775 67.3002 56.065C67.3002 55.305 67.4452 54.605 67.7352 53.965C68.0252 53.315 68.4352 52.75 68.9652 52.27C69.4952 51.79 70.1152 51.42 70.8252 51.16C71.5452 50.89 72.3252 50.755 73.1652 50.755C73.7352 50.755 74.1802 50.8 74.5002 50.89C74.8302 50.97 75.1052 51.06 75.3252 51.16C75.5052 51.24 75.6752 51.315 75.8352 51.385C76.0052 51.445 76.2002 51.475 76.4202 51.475C76.5302 51.475 76.6252 51.47 76.7052 51.46C76.7952 51.44 76.8902 51.42 76.9902 51.4L77.0502 51.445C76.9402 51.875 76.9152 52.325 76.9752 52.795C77.0452 53.265 77.1302 53.745 77.2302 54.235H76.8252C76.5852 53.655 76.2902 53.145 75.9402 52.705C75.6002 52.255 75.1952 51.905 74.7252 51.655C74.2652 51.405 73.7252 51.28 73.1052 51.28C72.4552 51.28 71.8652 51.475 71.3352 51.865C70.8052 52.255 70.3802 52.81 70.0602 53.53C69.7502 54.24 69.5952 55.085 69.5952 56.065C69.5952 56.965 69.7402 57.76 70.0302 58.45C70.3302 59.14 70.7452 59.68 71.2752 60.07C71.8152 60.45 72.4452 60.64 73.1652 60.64C73.6352 60.64 74.0652 60.565 74.4552 60.415C74.8452 60.255 75.1952 60.04 75.5052 59.77C75.8252 59.49 76.1052 59.17 76.3452 58.81C76.5852 58.45 76.7852 58.06 76.9452 57.64H77.4102C77.2702 58.12 77.1602 58.61 77.0802 59.11C77.0002 59.61 76.9552 60.095 76.9452 60.565H76.8402C76.5702 60.565 76.3102 60.595 76.0602 60.655C75.8202 60.705 75.5852 60.76 75.3552 60.82C75.0752 60.9 74.7702 60.975 74.4402 61.045C74.1202 61.115 73.7152 61.15 73.2252 61.15ZM85.6191 61.165C84.8391 61.165 84.1241 61.035 83.4741 60.775C82.8241 60.505 82.2591 60.14 81.7791 59.68C81.2991 59.21 80.9241 58.665 80.6541 58.045C80.3941 57.425 80.2641 56.765 80.2641 56.065C80.2641 55.305 80.3941 54.605 80.6541 53.965C80.9241 53.315 81.2991 52.75 81.7791 52.27C82.2591 51.79 82.8241 51.42 83.4741 51.16C84.1241 50.89 84.8391 50.755 85.6191 50.755C86.3991 50.755 87.1191 50.89 87.7791 51.16C88.4391 51.42 89.0091 51.785 89.4891 52.255C89.9691 52.725 90.3391 53.27 90.5991 53.89C90.8691 54.5 91.0041 55.16 91.0041 55.87C91.0041 56.63 90.8691 57.33 90.5991 57.97C90.3391 58.61 89.9691 59.17 89.4891 59.65C89.0091 60.13 88.4391 60.505 87.7791 60.775C87.1191 61.035 86.3991 61.165 85.6191 61.165ZM85.6191 60.64C86.2491 60.64 86.7941 60.445 87.2541 60.055C87.7141 59.665 88.0691 59.115 88.3191 58.405C88.5791 57.685 88.7091 56.845 88.7091 55.885C88.7091 54.975 88.5791 54.175 88.3191 53.485C88.0691 52.795 87.7141 52.255 87.2541 51.865C86.7941 51.475 86.2491 51.28 85.6191 51.28C85.0091 51.28 84.4741 51.475 84.0141 51.865C83.5541 52.255 83.1941 52.81 82.9341 53.53C82.6841 54.24 82.5591 55.085 82.5591 56.065C82.5591 56.735 82.6291 57.35 82.7691 57.91C82.9191 58.47 83.1291 58.955 83.3991 59.365C83.6691 59.775 83.9891 60.09 84.3591 60.31C84.7391 60.53 85.1591 60.64 85.6191 60.64ZM103.783 61.255L96.1475 52.81V59.62C96.1475 59.87 96.2125 60.06 96.3425 60.19C96.4825 60.31 96.6875 60.395 96.9575 60.445L98.0525 60.67V61H93.9275V60.67L94.7975 60.475C95.0675 60.415 95.2675 60.325 95.3975 60.205C95.5375 60.085 95.6075 59.89 95.6075 59.62V52.285C95.6075 52.075 95.5875 51.915 95.5475 51.805C95.5075 51.695 95.4275 51.615 95.3075 51.565C95.1975 51.505 95.0275 51.45 94.7975 51.4L94.0325 51.235V50.905H97.2125L103.498 57.835V52.285C103.498 52.035 103.428 51.85 103.288 51.73C103.158 51.6 102.958 51.51 102.688 51.46L101.593 51.235V50.905H105.718V51.235L104.848 51.43C104.578 51.49 104.373 51.58 104.233 51.7C104.103 51.82 104.038 52.015 104.038 52.285V61.255H103.783ZM110.473 61V60.67L111.238 60.505C111.588 60.425 111.808 60.335 111.898 60.235C111.998 60.135 112.048 59.93 112.048 59.62V51.4H110.953C110.523 51.4 110.133 51.515 109.783 51.745C109.433 51.965 109.138 52.265 108.898 52.645C108.658 53.015 108.483 53.42 108.373 53.86H107.968C108.028 53.59 108.078 53.285 108.118 52.945C108.168 52.595 108.198 52.245 108.208 51.895C108.218 51.535 108.198 51.205 108.148 50.905H118.048C117.998 51.205 117.978 51.535 117.988 51.895C117.998 52.245 118.028 52.595 118.078 52.945C118.128 53.285 118.178 53.59 118.228 53.86H117.823C117.713 53.42 117.538 53.015 117.298 52.645C117.058 52.265 116.763 51.965 116.413 51.745C116.073 51.515 115.683 51.4 115.243 51.4H114.148V59.62C114.148 59.93 114.198 60.135 114.298 60.235C114.398 60.335 114.618 60.425 114.958 60.505L115.723 60.67V61H110.473ZM130.875 61.225C130.455 61.225 130.055 61.15 129.675 61C129.295 60.85 128.925 60.61 128.565 60.28C128.205 59.95 127.845 59.52 127.485 58.99C127.235 58.61 126.98 58.24 126.72 57.88C126.46 57.51 126.17 57.205 125.85 56.965C125.54 56.715 125.165 56.59 124.725 56.59H124.38V59.62C124.38 59.93 124.43 60.135 124.53 60.235C124.63 60.335 124.85 60.425 125.19 60.505L125.955 60.67V61H120.705V60.67L121.47 60.505C121.82 60.425 122.04 60.335 122.13 60.235C122.23 60.135 122.28 59.93 122.28 59.62V52.285C122.28 51.965 122.23 51.755 122.13 51.655C122.04 51.555 121.82 51.47 121.47 51.4L120.705 51.235V50.905H124.905C126.405 50.905 127.575 51.145 128.415 51.625C129.265 52.105 129.69 52.785 129.69 53.665C129.69 54.125 129.545 54.545 129.255 54.925C128.975 55.295 128.6 55.595 128.13 55.825C127.66 56.055 127.145 56.2 126.585 56.26V56.29C127.045 56.31 127.455 56.435 127.815 56.665C128.175 56.885 128.5 57.17 128.79 57.52C129.09 57.86 129.37 58.225 129.63 58.615C129.89 58.985 130.15 59.33 130.41 59.65C130.67 59.97 130.935 60.23 131.205 60.43C131.485 60.62 131.77 60.715 132.06 60.715V61.075C131.66 61.175 131.265 61.225 130.875 61.225ZM124.38 56.095H124.905C125.385 56.095 125.825 56.015 126.225 55.855C126.635 55.685 126.96 55.435 127.2 55.105C127.44 54.765 127.56 54.335 127.56 53.815C127.56 53.025 127.31 52.425 126.81 52.015C126.32 51.605 125.62 51.4 124.71 51.4H124.38V56.095ZM134.085 61V60.67L134.955 60.475C135.175 60.425 135.34 60.355 135.45 60.265C135.57 60.165 135.665 60.035 135.735 59.875L138.795 52.63L138.33 51.475C138.65 51.465 138.92 51.405 139.14 51.295C139.36 51.175 139.525 51.045 139.635 50.905C139.745 50.755 139.8 50.63 139.8 50.53H140.01L143.94 60.07C143.99 60.19 144.07 60.28 144.18 60.34C144.29 60.4 144.465 60.455 144.705 60.505L145.47 60.67V61H140.22V60.67L140.985 60.505C141.205 60.455 141.365 60.395 141.465 60.325C141.575 60.245 141.63 60.14 141.63 60.01C141.63 59.96 141.62 59.91 141.6 59.86C141.59 59.81 141.575 59.755 141.555 59.695L138.885 53.005H139.215L136.305 59.89C136.295 59.92 136.285 59.95 136.275 59.98C136.275 60.01 136.275 60.035 136.275 60.055C136.275 60.145 136.31 60.225 136.38 60.295C136.45 60.365 136.565 60.415 136.725 60.445L138.015 60.67V61H134.085ZM137.25 57.61V57.115H141.525V57.61H137.25ZM153.411 61.15C152.541 61.15 151.741 61.02 151.011 60.76C150.291 60.5 149.666 60.14 149.136 59.68C148.616 59.21 148.211 58.67 147.921 58.06C147.631 57.44 147.486 56.775 147.486 56.065C147.486 55.305 147.631 54.605 147.921 53.965C148.211 53.315 148.621 52.75 149.151 52.27C149.681 51.79 150.301 51.42 151.011 51.16C151.731 50.89 152.511 50.755 153.351 50.755C153.921 50.755 154.366 50.8 154.686 50.89C155.016 50.97 155.291 51.06 155.511 51.16C155.691 51.24 155.861 51.315 156.021 51.385C156.191 51.445 156.386 51.475 156.606 51.475C156.716 51.475 156.811 51.47 156.891 51.46C156.981 51.44 157.076 51.42 157.176 51.4L157.236 51.445C157.126 51.875 157.101 52.325 157.161 52.795C157.231 53.265 157.316 53.745 157.416 54.235H157.011C156.771 53.655 156.476 53.145 156.126 52.705C155.786 52.255 155.381 51.905 154.911 51.655C154.451 51.405 153.911 51.28 153.291 51.28C152.641 51.28 152.051 51.475 151.521 51.865C150.991 52.255 150.566 52.81 150.246 53.53C149.936 54.24 149.781 55.085 149.781 56.065C149.781 56.965 149.926 57.76 150.216 58.45C150.516 59.14 150.931 59.68 151.461 60.07C152.001 60.45 152.631 60.64 153.351 60.64C153.821 60.64 154.251 60.565 154.641 60.415C155.031 60.255 155.381 60.04 155.691 59.77C156.011 59.49 156.291 59.17 156.531 58.81C156.771 58.45 156.971 58.06 157.131 57.64H157.596C157.456 58.12 157.346 58.61 157.266 59.11C157.186 59.61 157.141 60.095 157.131 60.565H157.026C156.756 60.565 156.496 60.595 156.246 60.655C156.006 60.705 155.771 60.76 155.541 60.82C155.261 60.9 154.956 60.975 154.626 61.045C154.306 61.115 153.901 61.15 153.411 61.15ZM162.505 61V60.67L163.27 60.505C163.62 60.425 163.84 60.335 163.93 60.235C164.03 60.135 164.08 59.93 164.08 59.62V51.4H162.985C162.555 51.4 162.165 51.515 161.815 51.745C161.465 51.965 161.17 52.265 160.93 52.645C160.69 53.015 160.515 53.42 160.405 53.86H160C160.06 53.59 160.11 53.285 160.15 52.945C160.2 52.595 160.23 52.245 160.24 51.895C160.25 51.535 160.23 51.205 160.18 50.905H170.08C170.03 51.205 170.01 51.535 170.02 51.895C170.03 52.245 170.06 52.595 170.11 52.945C170.16 53.285 170.21 53.59 170.26 53.86H169.855C169.745 53.42 169.57 53.015 169.33 52.645C169.09 52.265 168.795 51.965 168.445 51.745C168.105 51.515 167.715 51.4 167.275 51.4H166.18V59.62C166.18 59.93 166.23 60.135 166.33 60.235C166.43 60.335 166.65 60.425 166.99 60.505L167.755 60.67V61H162.505ZM172.736 61V60.67L173.501 60.505C173.851 60.425 174.071 60.335 174.161 60.235C174.261 60.135 174.311 59.93 174.311 59.62V52.285C174.311 51.965 174.261 51.755 174.161 51.655C174.071 51.555 173.851 51.47 173.501 51.4L172.736 51.235V50.905H177.986V51.235L177.221 51.4C176.881 51.47 176.661 51.555 176.561 51.655C176.461 51.755 176.411 51.965 176.411 52.285V59.62C176.411 59.93 176.461 60.135 176.561 60.235C176.661 60.335 176.881 60.425 177.221 60.505L177.986 60.67V61H172.736ZM190.618 61.255L182.983 52.81V59.62C182.983 59.87 183.048 60.06 183.178 60.19C183.318 60.31 183.523 60.395 183.793 60.445L184.888 60.67V61H180.763V60.67L181.633 60.475C181.903 60.415 182.103 60.325 182.233 60.205C182.373 60.085 182.443 59.89 182.443 59.62V52.285C182.443 52.075 182.423 51.915 182.383 51.805C182.343 51.695 182.263 51.615 182.143 51.565C182.033 51.505 181.863 51.45 181.633 51.4L180.868 51.235V50.905H184.048L190.333 57.835V52.285C190.333 52.035 190.263 51.85 190.123 51.73C189.993 51.6 189.793 51.51 189.523 51.46L188.428 51.235V50.905H192.553V51.235L191.683 51.43C191.413 51.49 191.208 51.58 191.068 51.7C190.938 51.82 190.873 52.015 190.873 52.285V61.255H190.618ZM200.646 61.165C199.926 61.165 199.226 61.05 198.546 60.82C197.876 60.59 197.266 60.255 196.716 59.815C196.176 59.375 195.746 58.835 195.426 58.195C195.116 57.545 194.961 56.805 194.961 55.975C194.961 55.215 195.106 54.52 195.396 53.89C195.686 53.25 196.086 52.695 196.596 52.225C197.106 51.755 197.701 51.395 198.381 51.145C199.071 50.885 199.806 50.755 200.586 50.755C201.116 50.755 201.551 50.79 201.891 50.86C202.231 50.93 202.516 51.015 202.746 51.115C202.976 51.205 203.186 51.29 203.376 51.37C203.566 51.44 203.776 51.475 204.006 51.475C204.116 51.475 204.206 51.47 204.276 51.46C204.356 51.44 204.441 51.42 204.531 51.4L204.591 51.445C204.571 51.545 204.546 51.65 204.516 51.76C204.496 51.87 204.486 51.98 204.486 52.09C204.486 52.4 204.506 52.7 204.546 52.99C204.596 53.28 204.641 53.52 204.681 53.71C204.731 53.89 204.756 53.98 204.756 53.98H204.231C204.021 53.4 203.746 52.91 203.406 52.51C203.066 52.1 202.666 51.79 202.206 51.58C201.756 51.37 201.246 51.265 200.676 51.265C200.136 51.265 199.651 51.39 199.221 51.64C198.801 51.88 198.446 52.215 198.156 52.645C197.866 53.075 197.641 53.575 197.481 54.145C197.331 54.715 197.256 55.325 197.256 55.975C197.256 56.615 197.321 57.22 197.451 57.79C197.581 58.35 197.786 58.845 198.066 59.275C198.346 59.705 198.716 60.04 199.176 60.28C199.646 60.52 200.211 60.64 200.871 60.64C201.101 60.64 201.396 60.61 201.756 60.55C202.116 60.48 202.466 60.295 202.806 59.995V57.745C202.806 57.425 202.756 57.215 202.656 57.115C202.566 57.015 202.346 56.93 201.996 56.86L201.231 56.695V56.365H206.226V56.695L205.716 56.8C205.376 56.87 205.156 56.96 205.056 57.07C204.956 57.18 204.906 57.395 204.906 57.715V60.55L204.861 60.58C204.731 60.55 204.626 60.53 204.546 60.52C204.476 60.5 204.356 60.49 204.186 60.49C204.006 60.49 203.811 60.52 203.601 60.58C203.401 60.63 203.181 60.695 202.941 60.775C202.651 60.865 202.316 60.95 201.936 61.03C201.566 61.12 201.136 61.165 200.646 61.165Z" fill="#FFC700"/>
<path d="M221 55C244.718 55 258.882 55 263 55" stroke="#FFC700"/>
<path d="M5 59C28.7176 59 42.8824 59 47 59" stroke="#FFC700"/>
</svg>
